<?xml version="1.0" encoding="UTF-8"?> <svg xmlns="http://www.w3.org/2000/svg" width="211" height="221" viewBox="0 0 211 221" fill="none"> <path opacity="0.8" d="M210.02 1.86406L26.0851 82.9328L83.0161 207.355L209.212 148.822L210.02 1.86406Z" fill="url(#paint0_linear)"></path> <path d="M159.314 90.3245C162.365 91.5465 181.556 99.8196 183.891 100.883C191.877 104.521 189.861 106.208 185.086 110.864C166.003 129.471 96.6652 196.934 91.6912 201.622C89.3019 203.873 87.6205 205.242 86.035 205.873C83.9006 206.724 53.2734 220.226 53.2734 220.226C53.2734 220.226 74.4548 203.107 119.83 104.166C119.83 104.166 150.925 90.2733 153.053 89.6745C154.537 89.2567 156.897 89.3568 159.314 90.3245Z" fill="url(#paint1_linear)"></path> <path d="M74.0633 102.119C74.7838 105.785 82.1653 156.345 82.1653 156.345L47.8355 185.353L0.931641 93.7738C0.931641 93.7738 32.3765 80.1759 32.9883 79.7689C33.6959 79.2981 35.0466 79.781 36.9445 80.6501C39.5905 81.8618 63.7524 91.4963 66.919 92.6399C72.7015 94.7282 72.9439 96.4221 74.0633 102.119Z" fill="url(#paint2_linear)"></path> <path d="M46.241 218.972C40.5265 216.419 24.1329 209.367 21.7653 208.298C16.0343 205.71 16.3553 205.931 15.4161 199.55C14.9225 196.197 0.664565 99.9728 0.237702 97.6923C-0.650149 92.949 0.986341 93.2269 4.52503 94.8474C7.17111 96.0591 31.333 105.694 34.4996 106.837C40.282 108.925 40.5245 110.619 41.6438 116.316C42.3644 119.983 49.7459 170.542 49.7459 170.542C49.7459 170.542 103.283 119.599 116.163 107.304C120.905 102.778 121.061 103.416 127.962 105.626C130.646 106.86 150.905 115.701 152.581 116.278C158.857 119.433 157.51 120.443 152.581 125.243C131.313 145.952 64.1219 211.248 59.2708 215.82C53.6652 221.103 51.9555 221.525 46.241 218.972Z" fill="url(#paint3_linear)"></path> <defs> <linearGradient id="paint0_linear" x1="65.0799" y1="192.217" x2="269.641" y2="17.7244" gradientUnits="userSpaceOnUse"> <stop stop-color="#FF9243" stop-opacity="0.5"></stop> <stop offset="0.459615" stop-color="#FF9243" stop-opacity="0"></stop> </linearGradient> <linearGradient id="paint1_linear" x1="144.208" y1="192.729" x2="163.335" y2="103.665" gradientUnits="userSpaceOnUse"> <stop stop-color="#FF6B00"></stop> <stop offset="1" stop-color="#FF9243"></stop> </linearGradient> <linearGradient id="paint2_linear" x1="65.6528" y1="161.619" x2="78.8149" y2="92.8831" gradientUnits="userSpaceOnUse"> <stop stop-color="#FF6B00"></stop> <stop offset="1" stop-color="#FF9243"></stop> </linearGradient> <linearGradient id="paint3_linear" x1="204.281" y1="132.058" x2="16.5888" y2="167.026" gradientUnits="userSpaceOnUse"> <stop stop-color="#FF6B00"></stop> <stop offset="1" stop-color="#FF9243"></stop> </linearGradient> </defs> </svg> 